<svg width="202" height="43" viewBox="0 0 202 43" fill="none" xmlns="http://www.w3.org/2000/svg">
<path d="M15.024 0.631989C10.672 0.631989 7.10933 1.57066 4.336 3.44799C1.56266 5.32533 0.175995 7.86399 0.175995 11.064C0.175995 14.2213 1.09333 16.632 2.928 18.296C4.80533 19.9173 7.70666 21.0693 11.632 21.752C13.424 22.0507 15.0667 22.4987 16.56 23.096C19.5467 24.2907 21.04 26.3813 21.04 29.368C21.04 31.5867 20.2933 33.5067 18.8 35.128C17.3493 36.664 15.8347 37.432 14.256 37.432C12.6347 37.432 10.9493 37.0907 9.2 36.408C9.07199 36.3653 8.19733 35.96 6.57599 35.192C4.95466 34.424 4.07999 34.0187 3.95199 33.976C3.82399 33.8907 3.58933 33.848 3.24799 33.848C2.90666 33.848 2.56533 33.9333 2.22399 34.104C1.62666 34.4453 1.13599 34.872 0.751995 35.384C0.367995 35.896 0.175995 36.3653 0.175995 36.792C0.175995 37.944 1.26399 39.096 3.43999 40.248C6.72533 42.0827 10.0533 43 13.424 43C16.7947 43 19.3973 42.2747 21.232 40.824C24.5173 38.1787 26.16 34.1467 26.16 28.728C26.16 22.2853 22.7253 18.4453 15.856 17.208C12.9547 16.6533 10.6293 15.992 8.88 15.224C6.704 14.2427 5.61599 12.7067 5.61599 10.616C5.61599 9.07999 6.51199 7.77866 8.304 6.71199C10.0533 5.64532 11.7813 5.11199 13.488 5.11199C15.152 5.11199 17.0293 5.60266 19.12 6.58399C21.1253 7.52266 22.448 7.99199 23.088 7.99199C23.6853 7.99199 24.1547 7.75732 24.496 7.28799C24.8373 6.81866 25.008 6.26399 25.008 5.62399C25.008 4.17332 24.0267 2.97866 22.064 2.03999C20.1867 1.10132 17.84 0.631989 15.024 0.631989Z" fill="black"/>
<path d="M48.815 16.056C48.8577 15.416 48.7297 14.8187 48.431 14.264C48.1323 13.7093 47.6843 13.432 47.087 13.432C46.4043 13.432 45.7857 13.624 45.231 14.008C44.6763 14.392 44.399 14.8827 44.399 15.48C44.399 20.1733 44.463 23.7147 44.591 26.104H42.607C42.479 26.104 41.6683 26.1253 40.175 26.168C38.6817 26.2107 36.6763 26.0187 34.159 25.592L34.287 15.544C34.287 14.6053 33.7323 14.136 32.623 14.136C31.983 14.136 31.407 14.328 30.895 14.712C30.383 15.0533 30.1057 15.48 30.063 15.992L29.807 26.68L29.743 29.88C29.743 33.1227 29.9777 36.9627 30.447 41.4C30.4897 41.8267 30.6817 42.2107 31.023 42.552C31.3643 42.8507 31.791 43 32.303 43C32.9003 43 33.455 42.8293 33.967 42.488C34.479 42.1467 34.7137 41.656 34.671 41.016C34.3297 35.0853 34.159 31.8427 34.159 31.288V29.944C37.4443 30.2853 40.0257 30.456 41.903 30.456C42.8417 30.456 43.7377 30.4133 44.591 30.328C44.591 35.5333 44.5057 39.1387 44.335 41.144C44.2923 42.3813 44.9963 43 46.447 43C47.983 43 48.751 41.8053 48.751 39.416L48.815 29.944V16.056Z" fill="black"/>
<path d="M55.5915 43C56.2315 43 56.8502 42.7867 57.4475 42.36C58.0448 41.8907 58.3648 41.4 58.4075 40.888C58.5782 38.6693 58.6635 31.736 58.6635 20.088C58.6635 17.4427 58.6422 15.8853 58.5995 15.416C58.5568 14.7333 58.3008 14.2213 57.8315 13.88C57.4048 13.5813 56.8715 13.432 56.2315 13.432C55.5915 13.432 55.0582 13.624 54.6315 14.008C54.2475 14.3493 54.0555 14.8187 54.0555 15.416L53.7995 41.464C53.7995 42.488 54.3968 43 55.5915 43Z" fill="black"/>
<path d="M80.8965 17.464C84.9072 17.464 86.9125 16.5893 86.9125 14.84C86.9125 13.9867 86.3365 13.432 85.1845 13.176L65.2165 13.816C64.6192 13.8587 64.0645 14.136 63.5525 14.648C63.0832 15.16 62.8485 15.672 62.8485 16.184C62.8485 17.2933 63.5098 17.848 64.8325 17.848C67.1792 17.848 69.7818 17.7413 72.6405 17.528C72.3845 20.472 72.2565 24.2907 72.2565 28.984C72.2565 32.9093 72.3205 36.984 72.4485 41.208C72.4485 42.4027 73.0032 43 74.1125 43C74.7525 43 75.3285 42.808 75.8405 42.424C76.3952 41.9973 76.6725 41.4853 76.6725 40.888C76.6725 39.352 76.6512 38.1573 76.6085 37.304L76.5445 32.504L76.6725 17.336L80.8965 17.464Z" fill="black"/>
<path d="M110.316 1.14399C105.111 1.14399 100.674 2.89332 97.0045 6.39199C93.3352 9.84799 91.5005 15.2027 91.5005 22.456C91.5005 29.7093 93.4418 35.4053 97.3245 39.544C99.5005 41.8053 102.124 42.936 105.196 42.936C106.69 42.936 108.46 42.616 110.508 41.976C112.727 41.208 115.586 39.9067 119.084 38.072C120.151 37.304 120.684 36.344 120.684 35.192C120.684 34.04 120.13 33.464 119.021 33.464C118.551 33.464 117.527 33.8267 115.948 34.552C111.468 36.6853 108.268 37.752 106.348 37.752C104.343 37.752 102.615 36.9627 101.164 35.384C98.3485 32.3973 96.9405 28.1947 96.9405 22.776C96.9405 17.4427 98.1352 13.3893 100.524 10.616C102.871 7.88532 106.37 6.51999 111.02 6.51999C112.94 6.51999 115.095 6.81866 117.484 7.41599C118.466 7.41599 119.276 7.15999 119.916 6.64799C120.556 6.09332 120.876 5.45332 120.876 4.72799C120.876 4.00266 120.514 3.36266 119.788 2.80799C116.247 1.69866 113.09 1.14399 110.316 1.14399Z" fill="black"/>
<path d="M145.315 16.056C145.358 15.416 145.23 14.8187 144.931 14.264C144.632 13.7093 144.184 13.432 143.587 13.432C142.904 13.432 142.286 13.624 141.731 14.008C141.176 14.392 140.899 14.8827 140.899 15.48C140.899 20.1733 140.963 23.7147 141.091 26.104H139.107C138.979 26.104 138.168 26.1253 136.675 26.168C135.182 26.2107 133.176 26.0187 130.659 25.592L130.787 15.544C130.787 14.6053 130.232 14.136 129.123 14.136C128.483 14.136 127.907 14.328 127.395 14.712C126.883 15.0533 126.606 15.48 126.563 15.992L126.307 26.68L126.243 29.88C126.243 33.1227 126.478 36.9627 126.947 41.4C126.99 41.8267 127.182 42.2107 127.523 42.552C127.864 42.8507 128.291 43 128.803 43C129.4 43 129.955 42.8293 130.467 42.488C130.979 42.1467 131.214 41.656 131.171 41.016C130.83 35.0853 130.659 31.8427 130.659 31.288V29.944C133.944 30.2853 136.526 30.456 138.403 30.456C139.342 30.456 140.238 30.4133 141.091 30.328C141.091 35.5333 141.006 39.1387 140.835 41.144C140.792 42.3813 141.496 43 142.947 43C144.483 43 145.251 41.8053 145.251 39.416L145.315 29.944V16.056Z" fill="black"/>
<path d="M155.227 41.272C155.441 39.3093 156.166 36.0667 157.403 31.544C159.707 32.1413 162.715 32.44 166.427 32.44L168.667 41.208C168.966 42.4027 169.819 43 171.227 43C171.782 43 172.251 42.8293 172.635 42.488C173.019 42.1467 173.212 41.72 173.212 41.208C172.06 36.216 171.078 32.2907 170.268 29.432C169.414 26.4027 168.284 23.352 166.876 20.28C165.468 17.2507 164.55 15.3947 164.123 14.712C163.611 13.9013 163.014 13.496 162.331 13.496C161.009 13.496 159.686 14.6693 158.363 17.016C156.913 19.5333 155.675 22.4773 154.651 25.848C152.177 33.528 150.939 38.648 150.939 41.208C150.939 42.3173 151.601 42.872 152.923 42.872C154.289 42.872 155.057 42.3387 155.227 41.272ZM162.139 19.384C163.377 21.9867 164.443 24.9093 165.339 28.152C162.779 28.152 160.561 27.896 158.684 27.384C159.58 24.3973 160.731 21.7307 162.139 19.384Z" fill="black"/>
<path d="M195.959 17.464C199.97 17.464 201.975 16.5893 201.975 14.84C201.975 13.9867 201.399 13.432 200.247 13.176L180.279 13.816C179.682 13.8587 179.127 14.136 178.615 14.648C178.146 15.16 177.911 15.672 177.911 16.184C177.911 17.2933 178.572 17.848 179.895 17.848C182.242 17.848 184.844 17.7413 187.703 17.528C187.447 20.472 187.319 24.2907 187.319 28.984C187.319 32.9093 187.383 36.984 187.511 41.208C187.511 42.4027 188.066 43 189.175 43C189.815 43 190.391 42.808 190.903 42.424C191.458 41.9973 191.735 41.4853 191.735 40.888C191.735 39.352 191.714 38.1573 191.671 37.304L191.607 32.504L191.735 17.336L195.959 17.464Z" fill="black"/>
</svg>
